<svg xmlns="http://www.w3.org/2000/svg" viewBox="0 0 258.69 148.45"><title>Asset 8</title><g id="Layer_2" data-name="Layer 2"><g id="Layer_1-2" data-name="Layer 1"><path d="M30.28,147.16l-12.69.13,8.59-29.68-11.1.12,3.43-11.87,34.9-.38L50,117.36l-11.11.11Z" transform="translate(-13.55)" fill="none" stroke="#e48f21" stroke-miterlimit="10" stroke-width="2.28"/><path d="M62.26,146.82q-9.19.09-13.94-5.92t-2.25-14.62q2.49-8.61,10.75-14.77a29.32,29.32,0,0,1,17.47-6.25q9.21-.11,13.95,5.92t2.25,14.62Q88,134.41,79.73,140.56A29.34,29.34,0,0,1,62.26,146.82Zm10.92-14.56a12,12,0,0,0,4.61-6.32,6.61,6.61,0,0,0-1-6.27,7,7,0,0,0-6-2.54,12.61,12.61,0,0,0-7.48,2.69,12,12,0,0,0-4.61,6.32,6.59,6.59,0,0,0,1,6.26,7,7,0,0,0,6,2.54A12.59,12.59,0,0,0,73.18,132.26Z" transform="translate(-13.55)" fill="none" stroke="#e48f21" stroke-miterlimit="10" stroke-width="2.28"/><path d="M116.3,104.81q9.2-.11,13.94,5.91t2.25,14.63Q130,134,121.74,140.11a29.34,29.34,0,0,1-17.47,6.26l-17.45.18,12-41.55ZM103,134.54l4.76,0a12.59,12.59,0,0,0,7.48-2.68,12,12,0,0,0,4.61-6.33,6.59,6.59,0,0,0-1-6.26,7,7,0,0,0-6-2.54l-4.76,0Z" transform="translate(-13.55)" fill="none" stroke="#e48f21" stroke-miterlimit="10" stroke-width="2.28"/><path d="M139,140.07l-4,6-12.69.13,27.9-41.73,15.86-.17,3.83,41.39-12.69.14-.53-5.92Zm15.55-23.24L147,128.15l8.63-.09Z" transform="translate(-13.55)" fill="none" stroke="#e48f21" stroke-miterlimit="10" stroke-width="2.28"/><path d="M200.57,134.15l3.75-12.94,13.84-.15L210.66,147l-19,.2q-10,.1-15.2-6.45T174,124.76q2.72-9.39,11.73-16.1a32,32,0,0,1,19-6.81l15.57-.17-3.75,12.94-15.56.17a13.71,13.71,0,0,0-8.16,2.93,13.08,13.08,0,0,0-5,6.89,7.19,7.19,0,0,0,1.06,6.83,7.64,7.64,0,0,0,6.5,2.77Z" transform="translate(-13.55)" fill="#e48f21"/><path d="M237.12,146.67q-10,.11-15.2-6.45t-2.45-16q2.72-9.39,11.73-16.09a31.89,31.89,0,0,1,19-6.82q10-.1,15.2,6.45t2.46,15.94q-2.73,9.39-11.73,16.1A32.07,32.07,0,0,1,237.12,146.67ZM249,130.79a13.09,13.09,0,0,0,5-6.89,7.22,7.22,0,0,0-1.06-6.83,7.7,7.7,0,0,0-6.51-2.77,13.66,13.66,0,0,0-8.15,2.93,13.15,13.15,0,0,0-5,6.89,7.21,7.21,0,0,0,1.06,6.83,7.67,7.67,0,0,0,6.51,2.77A13.71,13.71,0,0,0,249,130.79Z" transform="translate(-13.55)" fill="#e48f21"/><ellipse cx="99.77" cy="74.07" rx="10.84" ry="9.09" transform="translate(-36.86 91.18) rotate(-44.51)" fill="#e48f21"/><ellipse cx="200.72" cy="68.66" rx="10.84" ry="9.09" transform="translate(-4.11 160.39) rotate(-44.51)" fill="#e48f21"/><path d="M149.86,43.84c.11-.81.22-1.61.34-2.41s.19-1.34.28-2l.08-.57c0-.32.09-.65.14-1s.09-.66.13-1l0-.34v-.07L137.35,37,137,39.32,147.41,39,144.35,60.8s-2.27,3.7-4.22,3.77l-17.34.61a3.4,3.4,0,0,1-1.73-3.46l7.48-53.37L155,7.41l1-7L108.75,2.08S98.16,7.19,97.1,14.75C96.64,18,94,29.21,91.07,41L89.36,41,86.2,52.41l2-.09c-2.87,11.4-5.31,20.89-5.31,20.89L88.05,73c1.32-6.22,7.14-11.3,13.42-11.52a9.66,9.66,0,0,1,10.31,10.68h.35l1,0,1.56-.06,2-.07,2.41-.09,2.71-.09,2.91-.1,3-.11,3.07-.11,3-.11,2.87-.1,2.64-.09,2.32-.08,1.91-.07L145,71l1,0s.14-1,.15-1.12l.21-1.45.27-2,.33-2.34.37-2.66c.14-1,.27-1.92.4-2.88l.43-3c.14-1,.28-2.05.43-3.07l.42-3c.14-1,.28-1.94.41-2.91S149.73,44.74,149.86,43.84Z" transform="translate(-13.55)" fill="#e48f21"/><path d="M195,50.55c.2-1.61.53-4.14.53-4.14s-1.2-4-4.06-4.47-5.35-.7-5.35-.7l.23-4.93s10.22.49,13.48,1c-.06-3.22-.95-22.53-13.22-36.82A1.48,1.48,0,0,0,185.51,0L161.32.26a2.11,2.11,0,0,0-2,1.77l-9.41,67.11a1.38,1.38,0,0,0,1.46,1.65l34.76-1.23a2.05,2.05,0,0,0,1.71-1.11A167.45,167.45,0,0,0,196,51.08C195.63,51,195,50.82,195,50.55ZM172.46,63l-19.2.68A1.38,1.38,0,0,1,151.81,62l7.33-52.39.16-1.12a2.13,2.13,0,0,1,1.94-1.77L182.82,6a1.39,1.39,0,0,1,1.46,1.65l-7.46,53.22C176.51,63.07,172.46,63,172.46,63Zm11.92-34.25c-.68,0-.66-1.33-.66-1.33s2.17-19,2.14-19.89,1-1,1-1l3.48-.12c4.87,8.24,8.19,22.58,8.19,22.58S185.06,28.7,184.38,28.72Z" transform="translate(-13.55)" fill="#e48f21"/><path d="M196.38,54.41l-2.24,5.12.12,0a15.21,15.21,0,0,1,7.87-2.62,11,11,0,0,1,8.35,3l.67.1C205,50.51,196.38,54.41,196.38,54.41Z" transform="translate(-13.55)" fill="#e48f21"/><path d="M199.84,37.9A63.41,63.41,0,0,1,196,51.08a1.73,1.73,0,0,0,.26.05c1,.44,4.46-13.67,4.46-13.67a7,7,0,0,0-.87-.17c0,.13,0,.25,0,.33S199.85,37.8,199.84,37.9Z" transform="translate(-13.55)" fill="#e48f21"/><polygon points="8.29 88.38 238.43 91.33 258.69 73.34 8.29 88.38" fill="#e48f21"/></g></g></svg>